<svg id="Layer_1" enable-background="new 0 0 494.875 494.875" height="512" viewBox="0 0 494.875 494.875" width="512" xmlns="http://www.w3.org/2000/svg"><g><g><path d="m328.532 156.421c1.187-2.399 1.858-5.112 1.858-8.15 0-28.886-30-52.302-30-52.302s-12.591 9.838-21.459 24.618c-9.88-2.986-20.561-4.618-31.708-4.618-10.723 0-21.013 1.514-30.577 4.287-8.856-14.595-21.257-24.287-21.257-24.287s-30 23.416-30 52.302c0 2.533.47 4.839 1.312 6.928-7.058 10.632-11.068 22.817-11.068 35.77 0 41.421 41.006 75 91.59 75s91.59-33.579 91.59-75c-.001-12.46-3.716-24.208-10.281-34.548z" fill="#6987a0"/><path d="m328.532 156.421c1.187-2.399 1.858-5.112 1.858-8.15 0-28.886-30-52.302-30-52.302s-4.492 3.511-9.999 9.487c8.726 9.462 19.999 25.105 19.999 42.815 0 3.037-.67 5.751-1.858 8.15 6.566 10.34 10.28 22.088 10.28 34.548 0 38.654-35.711 70.473-81.59 74.553 3.285.292 6.62.447 10 .447 50.583 0 91.59-33.579 91.59-75 0-12.46-3.715-24.208-10.28-34.548z" fill="#4b6276"/><path d="m300.182 252.166c-14.952 8.692-33.227 13.803-52.96 13.803-19.669 0-37.889-5.079-52.814-13.72-22.002 11.799-36.971 35.007-36.971 61.72v139.938h179.875v-139.938c.001-26.777-15.041-50.031-37.13-61.803z" fill="#6987a0"/><g fill="#4b6276"><path d="m300.182 252.166c-3.557 2.068-7.307 3.926-11.215 5.568 17.193 12.752 28.346 33.185 28.346 56.235v139.938h20v-139.938c0-26.777-15.042-50.031-37.131-61.803z"/><path d="m157.438 333.29c-26.523 13.686-45.063 44.94-45.063 81.315 0 14.114 2.796 27.456 7.761 39.302h37.301v-120.617z"/><path d="m337.375 333.29c26.523 13.686 45.063 44.94 45.063 81.315 0 14.114-2.796 27.456-7.761 39.302h-37.301v-120.617z"/></g><circle cx="247.438" cy="288.031" fill="#ffc277" r="22.062"/><path d="m221.532 453.906c-5.516-33.946-37.703-60-76.594-60-3.662 0-7.258.248-10.784.694-9.617-26.722-33.306-45.632-61.027-45.632-36.244 0-65.626 32.31-65.626 72.167 0 11.804 2.594 22.934 7.162 32.771z" fill="#fff5bd"/><g fill="#ffc277"><path d="m114.153 394.601c3.526-.447 7.123-.694 10.784-.694 3.096 0 6.143.183 9.143.504-9.661-26.62-33.3-45.441-60.955-45.441-3.404 0-6.747.285-10.012.835 23.327 3.919 42.602 21.348 51.04 44.796z"/><path d="m144.938 393.906c-3.371 0-6.684.218-9.941.6 34.268 4.041 61.502 28.431 66.535 59.4h20c-5.516-33.946-37.703-60-76.594-60z"/></g><path d="m273.343 453.906c5.516-33.946 37.703-60 76.594-60 3.662 0 7.258.248 10.784.694 9.617-26.722 33.306-45.632 61.027-45.632 36.244 0 65.626 32.31 65.626 72.167 0 11.804-2.594 22.934-7.162 32.771z" fill="#fff5bd"/><path d="m421.749 348.969c-3.396 0-6.731.288-9.988.835 31.492 5.301 55.615 35.218 55.615 71.332 0 11.804-2.594 22.934-7.162 32.771h20c4.569-9.837 7.162-20.967 7.162-32.771-.001-39.857-29.383-72.167-65.627-72.167z" fill="#ffc277"/><circle cx="67.5" cy="295.906" fill="#fff5bd" r="22.458"/><circle cx="427.375" cy="243.427" fill="#fff5bd" r="22.458"/></g><g><path d="m193.389 184.136h15v15h-15z"/><path d="m284.723 184.136h15v15h-15z"/><path d="m232.223 191.531h30.333v15h-30.333z"/><path d="m278.223 340.969h15v14.938h-15z"/><path d="m475.896 367.579-11.521 9.605c9.996 11.989 15.5 27.599 15.5 43.951 0 8.801-1.554 17.279-4.625 25.271h-192.369c8.669-26.185 35.937-45 67.056-45 .86 0 1.716.02 2.571.047.717.025 1.438.06 2.161.105.062.004 3.461.274 5.109.482l1.961.249c11.386 1.725 22.049 5.956 31.316 12.49l8.645-12.258c-9.152-6.454-19.412-11.035-30.33-13.626 10.27-19.953 29.263-32.427 50.379-32.427 11.838 0 23.229 3.938 32.942 11.39l9.13-11.9c-12.355-9.479-26.904-14.489-42.072-14.489-17.513 0-33.826 6.643-46.616 18.178-7.767-12.95-18.244-23.608-30.32-30.784v-14.894c0-24.649-11.631-47.463-30.98-61.972 10.192-7.718 18.444-17.18 24.083-27.81l21.204 7.684 5.11-14.104-20.665-7.488c.412-1.426.782-2.866 1.104-4.319h22.734v-15h-21.091c0-1.958-.094-3.912-.261-5.861l18.178-6.587-5.11-14.104-15.992 5.795c-1.55-4.99-3.65-9.855-6.287-14.509.697-2.369 1.049-4.853 1.049-7.423 0-32.176-31.542-57.166-32.885-58.214l-4.617-3.604-4.615 3.606c-.5.391-11.137 8.779-20.157 21.841-9.179-2.278-18.704-3.431-28.392-3.431-9.277 0-18.419 1.061-27.251 3.157-8.979-12.905-19.471-21.182-19.964-21.566l-4.615-3.607-4.618 3.604c-1.343 1.048-32.885 26.038-32.885 58.214 0 1.993.214 3.943.64 5.83-3.057 5.107-5.459 10.476-7.183 16.001l-15.714-5.694-5.11 14.104 17.882 6.48c-.173 1.983-.27 3.974-.27 5.968h-20.785v15h22.429c.329 1.488.709 2.961 1.133 4.419l-20.389 7.388 5.11 14.104 20.947-7.591c5.667 10.648 13.96 20.12 24.197 27.838-6.323 4.782-11.932 10.524-16.527 16.982l12.222 8.695c4.825-6.781 11.032-12.585 18.096-16.97 8.748 4.587 18.413 8.067 28.71 10.203-3.398 4.813-5.402 10.677-5.402 17.004 0 16.301 13.262 29.563 29.563 29.563s29.561-13.263 29.561-29.564c0-6.36-2.026-12.252-5.456-17.08 10.224-2.156 19.818-5.639 28.504-10.215 18.453 11.352 29.765 31.402 29.765 53.232v74.671c-12.969 2.898-25.107 8.559-35.341 16.654-.425.336-.831.69-1.249 1.033v-35.359h-15v51.605c-5.059 7.307-8.78 15.356-10.954 23.834h-39.662c-2.125-8.285-5.722-16.162-10.607-23.337v-82.101h-15v65.646c-.531-.442-1.052-.891-1.596-1.321-10.267-8.121-22.451-13.793-35.466-16.683v-74.642c0-8.005 1.491-15.796 4.43-23.155l-13.93-5.564c-3.65 9.138-5.5 18.801-5.5 28.72v14.931c-12.058 7.177-22.489 17.788-30.24 30.707-12.783-11.51-29.078-18.138-46.571-18.138-40.323 0-73.127 35.738-73.127 79.667 0 12.611 2.645 24.7 7.86 35.93l2.016 4.341h475.122l2.016-4.341c5.216-11.229 7.86-23.318 7.86-35.93.001-19.857-6.739-38.876-18.978-53.557zm-312.763-176.61c0-11.013 3.395-21.947 9.817-31.621l2.184-3.29-1.476-3.662c-.517-1.282-.769-2.632-.769-4.125 0-18.39 14.758-34.896 22.5-42.288 3.763 3.595 9.179 9.346 13.757 16.432v18.616h15v-14.96c5.087-1.169 10.292-1.956 15.577-2.333v22.293h15v-22.296c5.14.365 10.203 1.111 15.152 2.225v15.071h15v-15.776l.486-.81c4.817-8.027 10.921-14.542 15.037-18.472 2.53 2.412 5.815 5.81 9.113 9.972 6.104 7.702 13.378 19.563 13.378 32.325 0 1.778-.353 3.356-1.08 4.825l-1.872 3.782 2.262 3.563c6.046 9.521 9.112 19.793 9.112 30.527 0 37.22-37.722 67.5-84.089 67.5s-84.089-30.279-84.089-67.498zm84.305 111.625c-8.03 0-14.563-6.532-14.563-14.563s6.533-14.563 14.563-14.563 14.562 6.533 14.562 14.563-6.533 14.563-14.562 14.563zm97.375 44.492c7.883 6.346 14.667 14.652 19.751 24.32-3.372 4.63-6.31 9.709-8.72 15.194-.136-.009-1.994-.111-2.793-.137-1.044-.036-2.082-.057-3.113-.057-1.715 0-3.422.065-5.125.159zm-194.875.047v39.425c-1.662-.09-3.327-.152-5-.152-1.03 0-2.069.021-3.112.057-.799.026-2.658.128-2.793.137-2.417-5.499-5.364-10.59-8.747-15.231 5.071-9.634 11.802-17.908 19.652-24.236zm-130.313 99.273c-3.071-7.991-4.625-16.469-4.625-25.27 0-35.657 26.076-64.667 58.126-64.667 21.116 0 40.11 12.475 50.379 32.427-10.918 2.591-21.178 7.172-30.33 13.626l8.645 12.258c9.266-6.534 19.929-10.766 31.316-12.49 0 0 5.254-.615 6.885-.721.061-.004 4.056-.163 4.916-.163 31.119 0 58.387 18.815 67.056 45z"/><path d="m67.5 325.864c16.519 0 29.958-13.439 29.958-29.958s-13.439-29.958-29.958-29.958-29.958 13.439-29.958 29.958 13.439 29.958 29.958 29.958zm0-44.916c8.248 0 14.958 6.71 14.958 14.958s-6.71 14.958-14.958 14.958-14.958-6.71-14.958-14.958 6.71-14.958 14.958-14.958z"/><path d="m397.417 243.427c0 16.52 13.439 29.959 29.958 29.959s29.958-13.439 29.958-29.959c0-16.519-13.439-29.958-29.958-29.958s-29.958 13.439-29.958 29.958zm44.916 0c0 8.248-6.71 14.959-14.958 14.959s-14.958-6.711-14.958-14.959 6.71-14.958 14.958-14.958 14.958 6.71 14.958 14.958z"/><path d="m382.375 288.406h15.002v15h-15.002z"/><path d="m7.5 228.531h15.002v15h-15.002z"/><path d="m112.717 78.531h15.002v15h-15.002z"/><path d="m337.375 33.469h15.002v15h-15.002z"/><path d="m419.889 40.969h14.972v28h-14.972z"/><path d="m442.438 76.524h28v14.973h-28z"/><path d="m419.889 99.427h14.972v28h-14.972z"/><path d="m384.313 76.524h28v14.973h-28z"/><path d="m44.889 117.739h14.972v28h-14.972z"/><path d="m67.438 153.295h28v14.973h-28z"/><path d="m44.889 176.198h14.972v28h-14.972z"/><path d="m9.313 153.295h28v14.973h-28z"/></g></g></svg>